Coordinates
version=1
nRows=11
nColumns=63
inDegrees=yes

Units are S.I. units (second, meters, Newtons, ...)
If the header above contains a line with 'inDegrees', this indicates whether rotational values are in degrees (yes) or radians (no).

endheader
time	pelvis_tilt	pelvis_list	pelvis_rotation	pelvis_tx	pelvis_ty	pelvis_tz	hip_flexion_r	hip_adduction_r	hip_rotation_r	knee_angle_r	knee_angle_r_beta	ankle_angle_r	subtalar_angle_r	mtp_angle_r	hip_flexion_l	hip_adduction_l	hip_rotation_l	knee_angle_l	knee_angle_l_beta	ankle_angle_l	subtalar_angle_l	mtp_angle_l	L5_S1_Flex_Ext	L5_S1_Lat_Bending	L5_S1_axial_rotation	L4_L5_Flex_Ext	L4_L5_Lat_Bending	L4_L5_axial_rotation	L3_L4_Flex_Ext	L3_L4_Lat_Bending	L3_L4_axial_rotation	L2_L3_Flex_Ext	L2_L3_Lat_Bending	L2_L3_axial_rotation	L1_L2_Flex_Ext	L1_L2_Lat_Bending	L1_L2_axial_rotation	L1_T12_Flex_Ext	L1_T12_Lat_Bending	L1_T12_axial_rotation	Abs_r3	Abs_r2	Abs_r1	Abs_t1	Abs_t2	neck_flexion	neck_bending	neck_rotation	arm_flex_r	arm_add_r	arm_rot_r	elbow_flex_r	pro_sup_r	wrist_flex_r	wrist_dev_r	arm_flex_l	arm_add_l	arm_rot_l	elbow_flex_l	pro_sup_l	wrist_flex_l	wrist_dev_l
      2.50847458	      3.22495160	     -2.25422654	     97.16267918	      0.16208690	      1.02258315	      0.10638052	     -2.16760673	      4.22895344	      5.48385055	      1.11154738	      0.01940016	     26.73803008	    -14.18875976	      0.00000000	     -0.99172643	     -0.90697210	     16.92637286	      1.85521582	      0.03237962	     25.79769541	    -16.36069946	      0.00000000	      0.16526369	      0.57615835	     -1.23338632	      0.30691120	      0.76629061	     -1.31047296	      0.27151171	      1.40087142	     -1.31047296	      0.18887987	      1.40087142	     -1.07921303	      0.15346386	      1.17490211	     -1.00212638	      0.09443167	      0.89246929	     -0.92503974	      1.18046200	      6.51761850	     -6.85972468	      0.00000000	      0.00000000	     23.25679022	     -0.67942318	      7.45030902	     25.55526996	     -4.96114044	    101.63229924	     36.58045650	     47.75571376	     15.27503733	      8.73862927	     15.59174178	     -7.74701276	     60.95514909	     44.23369324	     86.15892595	      1.74711051	     -7.45303682
      2.52542373	      3.17247279	     -2.29545647	     96.69665372	      0.16297435	      1.02241319	      0.10563955	     -2.14612750	      4.15878873	      5.30817799	      1.16368717	      0.02031017	     27.10259163	    -13.17030084	      0.00000000	     -1.08293869	     -0.87470934	     15.79668455	      1.76298235	      0.03076985	     26.04361155	    -15.54477943	      0.00000000	      0.17935707	      0.56304630	     -1.11688061	      0.33308401	      0.74885158	     -1.18668564	      0.29466573	      1.36899077	     -1.18668564	      0.20498719	      1.36899077	     -0.97727053	      0.16655097	      1.14816402	     -0.90746549	      0.10248463	      0.87215872	     -0.83766045	      1.28112960	      6.36929236	     -6.21175486	      0.00000000	      0.00000000	     23.15020714	     -0.59145198	      7.08529118	     25.51159175	     -4.98881255	    101.64625852	     36.80168196	     47.43100821	     15.15277783	      9.32423593	     15.50372805	     -7.70595048	     60.96305574	     44.16868516	     87.03023101	      1.75619050	     -7.46872070
      2.54237288	      3.05587126	     -2.29916549	     96.59420039	      0.16345235	      1.02229152	      0.10527535	     -2.20293705	      4.05048331	      5.98705351	      1.11638429	      0.01948458	     26.99368187	    -13.90646502	      0.00000000	     -1.17571564	     -0.79516278	     16.37899372	      1.63015876	      0.02845164	     25.72473876	    -16.51683895	      0.00000000	      0.17862448	      0.53935534	     -1.05770295	      0.33172353	      0.71734260	     -1.12380938	      0.29346216	      1.31138858	     -1.12380938	      0.20414992	      1.31138858	     -0.92549008	      0.16587069	      1.09985341	     -0.85938364	      0.10206603	      0.83546142	     -0.79327721	      1.27589681	      6.10129550	     -5.88262647	      0.00000000	      0.00000000	     23.41310693	     -0.54625852	      6.56543720	     25.84471952	     -4.85191712	    102.91901035	     36.87535307	     47.47601028	     15.00143530	      8.24832964	     15.70865785	     -7.79604527	     61.60689000	     44.18020946	     86.42805947	      1.89982071	     -7.16065074
      2.55932203	      2.96824364	     -2.29608321	     96.27025790	      0.16428724	      1.02233807	      0.10468756	     -2.23761946	      3.97044070	      6.29460862	      1.09779686	      0.01916017	     27.09077716	    -13.78225292	      0.00000000	     -1.28094989	     -0.73500555	     16.10177876	      1.54062747	      0.02688902	     25.80129750	    -16.70250184	      0.00000000	      0.18076592	      0.51809055	     -0.95411611	      0.33570040	      0.68906043	     -1.01374836	      0.29698034	      1.25968536	     -1.01374836	      0.20659738	      1.25968536	     -0.83485159	      0.16785924	      1.05649024	     -0.77521934	      0.10328965	      0.80252226	     -0.71558708	      1.29119292	      5.86074389	     -5.30650755	      0.00000000	      0.00000000	     23.41550010	     -0.51083464	      5.94223445	     25.88212964	     -4.84209366	    103.11336302	     36.98278434	     49.35280270	     14.95375562	      7.39813362	     15.71656906	     -7.86014943	     61.87446584	     44.18404319	     86.35223901	      2.09181773	     -7.17506881
      2.57627119	      2.82478835	     -2.32901223	     95.91610650	      0.16515113	      1.02247944	      0.10420622	     -2.24176992	      3.82946321	      7.23893417	      1.05320715	      0.01838193	     26.88580694	    -14.60789510	      0.00000000	     -1.35460928	     -0.61726954	     15.75920104	      1.44223952	      0.02517183	     25.86320407	    -16.73924095	      0.00000000	      0.18687536	      0.48978391	     -0.83895634	      0.34704622	      0.65141260	     -0.89139111	      0.30701752	      1.19086060	     -0.89139111	      0.21357984	      1.19086060	     -0.73408679	      0.17353246	      0.99876735	     -0.68165202	      0.10678058	      0.75867527	     -0.62921725	      1.33483198	      5.54053353	     -4.66602346	      0.00000000	      0.00000000	     23.45423013	     -0.50133615	      5.24686152	     25.71794416	     -4.93283371	    102.11651056	     37.00536014	     55.59115902	     15.29219284	      5.49170862	     15.77131283	     -7.96976058	     62.35908163	     44.07797669	     85.93806206	      2.42212439	     -7.64571300
      2.59322034	      2.64306957	     -2.32970449	     95.72337522	      0.16588200	      1.02274500	      0.10375713	     -2.28183578	      3.66216145	      7.36425509	      1.05400597	      0.01839587	     26.86062311	    -14.61217185	      0.00000000	     -1.42945896	     -0.47135259	     15.69662353	      1.35974896	      0.02373210	     25.88149716	    -16.87712414	      0.00000000	      0.19071846	      0.45431381	     -0.75796995	      0.35418325	      0.60423737	     -0.80534307	      0.31333136	      1.10461860	     -0.80534307	      0.21797213	      1.10461860	     -0.66322371	      0.17710116	      0.92643672	     -0.61585058	      0.10897653	      0.70373209	     -0.56847746	      1.36228289	      5.13928867	     -4.21560147	      0.00000000	      0.00000000	     23.36544664	     -0.39907624	      4.53457823	     25.34210371	     -5.08551162	    100.10256043	     37.04136120	     64.35449338	     15.53643627	      3.00696583	     15.80040765	     -8.22415744	     62.84992284	     44.07773278	     85.77647800	      2.96941939	     -8.26993962
      2.61016949	      2.45585479	     -2.30872286	     95.55206584	      0.16657520	      1.02306691	      0.10334277	     -2.35851749	      3.50091222	      7.28608517	      1.07096539	      0.01869187	     26.74102856	    -14.58158944	      0.00000000	     -1.51434572	     -0.32135097	     15.66924256	      1.28728529	      0.02246737	     25.84896548	    -17.00256299	      0.00000000	      0.19227580	      0.42027985	     -0.70019806	      0.35707539	      0.55897220	     -0.74396044	      0.31588991	      1.02186843	     -0.74396044	      0.21975201	      1.02186843	     -0.61267330	      0.17854731	      0.85703467	     -0.56891093	      0.10986639	      0.65101349	     -0.52514855	      1.37340681	      4.75428973	     -3.89429156	      0.00000000	      0.00000000	     23.25266262	     -0.29717820	      4.01938952	     24.92179146	     -5.24937970	     97.71952382	     37.16613491	     74.10277463	     15.56855402	      0.26919261	     15.72337185	     -8.56300412	     63.13605211	     44.11325172	     85.90408333	      3.76485671	     -9.12885310
      2.62711864	      2.25357578	     -2.27174402	     95.59787120	      0.16687748	      1.02339241	      0.10302493	     -2.46821434	      3.33168508	      6.33175438	      1.13327939	      0.01977946	     26.77284313	    -13.78451776	      0.00000000	     -1.57972867	     -0.15362474	     15.91424665	      1.24644534	      0.02175458	     25.72771188	    -17.14687022	      0.00000000	      0.19407662	      0.38712555	     -0.70020344	      0.36041969	      0.51487698	     -0.74396615	      0.31884848	      0.94125706	     -0.74396615	      0.22181017	      0.94125706	     -0.61267801	      0.18021955	      0.78942642	     -0.56891529	      0.11089538	      0.59965748	     -0.52515258	      1.38626988	      4.37924164	     -3.89432145	      0.00000000	      0.00000000	     23.05798057	     -0.16456408	      3.74794067	     24.64480575	     -5.38915535	     95.95554195	     37.37057837	     81.51333064	     15.33999807	     -2.09902321	     15.64984931	     -8.93952633	     63.49520531	     44.06116258	     86.11129695	      4.47183867	    -10.26122997
      2.64406780	      2.13326996	     -2.16270379	     95.65744520	      0.16726496	      1.02376757	      0.10287127	     -2.63324082	      3.27479551	      5.77105574	      1.23445853	      0.02154537	     26.52995992	    -13.69096240	      0.00000000	     -1.68692623	     -0.08136932	     16.00295233	      1.26610986	      0.02209779	     25.64680223	    -17.03889348	      0.00000000	      0.18218822	      0.36768674	     -0.74093643	      0.33834175	      0.48902336	     -0.78724495	      0.29931703	      0.89399354	     -0.78724495	      0.20822292	      0.89399354	     -0.64831937	      0.16917998	      0.74978680	     -0.60201085	      0.10410235	      0.56954676	     -0.55570232	      1.30135226	      4.15934592	     -4.12086613	      0.00000000	      0.00000000	     22.91036725	     -0.05878465	      3.88251860	     24.84548286	     -5.39667283	     96.03886996	     37.61759027	     84.62436973	     14.37853356	     -3.45801775	     15.54222594	     -9.42496594	     63.76633391	     44.12361600	     86.63720958	      4.83800174	    -11.56821153
      2.66101695	      1.89465425	     -2.09986999	     95.81808079	      0.16753991	      1.02400151	      0.10258842	     -2.82084412	      3.08717325	      5.13400183	      1.26729937	      0.02211855	     26.35430124	    -13.56134823	      0.00000000	     -1.78904896	      0.12340222	     16.34399985	      1.25204090	      0.02185224	     25.32721500	    -17.12070432	      0.00000000	      0.18430038	      0.32940012	     -0.79142297	      0.34226424	      0.43810215	     -0.84088690	      0.30278710	      0.80090344	     -0.84088690	      0.21063691	      0.80090344	     -0.69249510	      0.17114134	      0.67171272	     -0.64303116	      0.10530924	      0.51024078	     -0.59356723	      1.31643920	      3.72623999	     -4.40165712	      0.00000000	      0.00000000	     22.59759407	      0.16402486	      3.79056654	     24.79959927	     -5.30429185	     95.67873749	     37.63849236	     86.36569864	     13.80633344	     -4.30823366	     15.49809886	     -9.94430441	     64.26503499	     44.07525544	     86.58314238	      5.33965995	    -12.77787278
      2.67796610	      1.72709933	     -2.01608431	     95.96368324	      0.16771045	      1.02418970	      0.10236461	     -3.01257047	      2.97248883	      4.78485918	      1.30776389	      0.02282479	     26.07836872	    -13.78619768	      0.00000000	     -1.90023139	      0.26477005	     16.47895701	      1.27950057	      0.02233150	     25.10261971	    -16.89280467	      0.00000000	      0.18028079	      0.30366501	     -0.84302079	      0.33479945	      0.40387447	     -0.89570959	      0.29618330	      0.73833111	     -0.89570959	      0.20604291	      0.73833111	     -0.73764319	      0.16740874	      0.61923369	     -0.68495439	      0.10301244	      0.47037710	     -0.63226559	      1.28772763	      3.43511934	     -4.68862871	      0.00000000	      0.00000000	     22.38280350	      0.26276323	      3.79472073	     24.96746100	     -5.17094886	     96.07501738	     37.68748051	     87.07471189	     12.93338538	     -4.79306390	     15.42651028	    -10.33990674	     64.51658118	     43.99412630	     86.80917520	      5.67059090	    -13.73854795
